# xmcd CD database file
#
# Track frame offsets:
#	150
#	26713
#	58562
#	87540
#	120282
#	150668
#	186380
#	225105
#
# Disc length: 3206 seconds
#
# Revision: 2
# Processed by: cddbd v1.5PL3 Copyright (c) Steve Scherf et al.
# Submitted via: CDex 1.51
#
DISCID=590c8408
DTITLE=James Harry (Llewellyn) - Lotus Morning
DYEAR=1998
DGENRE=New Age
TTITLE0=Lotus Morning
TTITLE1=Inner Healing
TTITLE2=Colours of the East
TTITLE3=Ancient Wisdom
TTITLE4=Tien Ti Ren - Trinity of Luck
TTITLE5=Cycle of Prosperity
TTITLE6=Gods of Fortune
TTITLE7=Sheng Chi - Breath of the Drag
EXTD=YEAR: 1998
EXTT0=
EXTT1=
EXTT2=
EXTT3=
EXTT4=
EXTT5=
EXTT6=
EXTT7=
PLAYORDER=
